# xmcd
#
# Track frame offsets:
#	150
#	4824
#	13574
#	16399
#	28958
#	38160
#	41328
#	51907
#	59298
#	63130
#	70021
#	76783
#	86265
#	92361
#	98713
#	102825
#	106242
#
# Disc length: 1697 seconds
#
# Revision: 1
# Processed by: cddbd v1.5.2PL0 Copyright (c) Steve Scherf et al.
# Submitted via: audiograbber 1.83.01
#
DISCID=bd069f11
DTITLE=Catheter - Southwest Doom Violence
DYEAR=2012
DGENRE=Grindcore
TTITLE0=Intro
TTITLE1=Encapsulation
TTITLE2=Can't Dream
TTITLE3=Prosthetic Mind
TTITLE4=A Thousand Lies
TTITLE5=Hypercaine
TTITLE6=Turning Point
TTITLE7=Ingestion
TTITLE8=Conspiracy Control
TTITLE9=Doom To Grind
TTITLE10=Can't Change Existence
TTITLE11=No Harvest
TTITLE12=Death Merchant
TTITLE13=Strike
TTITLE14=Bullshit Business
TTITLE15=Vile
TTITLE16=In This Moment
EXTD=
EXTT0=
EXTT1=
EXTT2=
EXTT3=
EXTT4=
EXTT5=
EXTT6=
EXTT7=
EXTT8=
EXTT9=
EXTT10=
EXTT11=
EXTT12=
EXTT13=
EXTT14=
EXTT15=
EXTT16=
PLAYORDER=
